<svg width="904" height="601" viewBox="0 0 904 601" fill="none" xmlns="http://www.w3.org/2000/svg">
<path fill-rule="evenodd" clip-rule="evenodd" d="M256.867 29.9302H452H647.047C684.676 -34.3543 868.058 -14.4611 896.871 306.41C910.97 463.424 913.938 624.988 791.627 597.112C717.638 580.25 677.403 476.036 655.212 418.557L655.207 418.545C653.554 414.263 652.001 410.242 650.542 406.535C649.239 407.075 647.862 407.66 646.415 408.275L646.41 408.277C621.968 418.664 577.449 437.584 524.818 395.157H452H379.096C326.464 437.584 281.945 418.664 257.504 408.277L257.498 408.275C256.051 407.66 254.675 407.075 253.371 406.535C251.911 410.245 250.356 414.271 248.702 418.557C226.51 476.036 186.275 580.25 112.287 597.112C-10.0244 624.988 -7.05686 463.424 7.04231 306.41C35.8552 -14.4611 219.238 -34.3543 256.867 29.9302ZM155.04 106.302C149.162 106.113 131.343 107.655 128.871 109.715C125.458 112.56 125.958 148.048 129.44 153.52C132.49 158.313 141.77 165.442 149.1 171.074L149.102 171.075L149.104 171.077C151.343 172.796 153.399 174.376 155.04 175.707L155.04 175.723C156.682 174.391 158.74 172.81 160.98 171.089C168.31 165.458 177.59 158.329 180.64 153.536C184.122 148.064 184.622 112.576 181.209 109.731C178.737 107.671 160.919 106.128 155.04 106.318V106.302ZM155.081 263.316V263.331C149.203 263.521 131.385 261.978 128.912 259.918C125.499 257.074 125.999 221.586 129.481 216.114C132.532 211.321 141.812 204.191 149.142 198.56L149.142 198.56L149.143 198.559L149.146 198.557L149.146 198.556C151.384 196.837 153.44 195.258 155.081 193.927L155.081 193.911C156.724 195.243 158.781 196.823 161.021 198.544C168.351 204.175 177.631 211.305 180.681 216.098C184.164 221.57 184.664 257.058 181.25 259.902C178.778 261.963 160.96 263.505 155.081 263.316ZM76.5464 184.837C76.3567 190.716 77.8994 208.534 79.9596 211.006C82.8042 214.42 118.292 213.92 123.764 210.438C128.557 207.387 135.687 198.107 141.318 190.777C143.038 188.537 144.619 186.48 145.951 184.837H76.5464ZM76.5623 184.837C76.3727 178.959 77.9153 161.141 79.9755 158.669C82.8201 155.255 118.308 155.755 123.78 159.237C128.573 162.288 135.702 171.567 141.333 178.897L141.333 178.897L141.334 178.898L141.334 178.898C143.054 181.138 144.635 183.195 145.967 184.837H76.5623ZM233.576 184.796C233.765 190.675 232.223 208.493 230.162 210.965C227.318 214.378 191.83 213.878 186.358 210.396C181.565 207.346 174.435 198.066 168.804 190.736L168.804 190.735C167.083 188.496 165.503 186.438 164.171 184.796L164.155 184.796C165.487 183.154 167.067 181.096 168.788 178.857L168.788 178.856C174.419 171.526 181.549 162.246 186.342 159.196C191.814 155.714 227.302 155.214 230.146 158.627C232.207 161.099 233.749 178.918 233.56 184.796H233.576ZM741.565 155.227C760.416 155.227 775.698 139.945 775.698 121.093C775.698 102.242 760.416 86.96 741.565 86.96C722.713 86.96 707.431 102.242 707.431 121.093C707.431 139.945 722.713 155.227 741.565 155.227ZM741.564 281.52C760.416 281.52 775.698 266.238 775.698 247.387C775.698 228.535 760.416 213.253 741.564 213.253C722.713 213.253 707.431 228.535 707.431 247.387C707.431 266.238 722.713 281.52 741.564 281.52ZM712.551 184.24C712.551 165.389 697.269 150.107 678.418 150.107C659.566 150.107 644.284 165.389 644.284 184.24C644.284 203.091 659.566 218.373 678.418 218.373C697.269 218.373 712.551 203.091 712.551 184.24ZM838.844 184.24C838.844 165.389 823.562 150.107 804.711 150.107C785.86 150.107 770.578 165.389 770.578 184.24C770.578 203.091 785.86 218.373 804.711 218.373C823.562 218.373 838.844 203.091 838.844 184.24ZM661.351 320.204C661.351 351.623 635.881 377.093 604.462 377.093C573.043 377.093 547.573 351.623 547.573 320.204C547.573 288.786 573.043 263.316 604.462 263.316C635.881 263.316 661.351 288.786 661.351 320.204ZM298.4 377.093C329.819 377.093 355.289 351.623 355.289 320.204C355.289 288.786 329.819 263.316 298.4 263.316C266.981 263.316 241.511 288.786 241.511 320.204C241.511 351.623 266.981 377.093 298.4 377.093Z" fill="white"/>
</svg>
